<svg xmlns="http://www.w3.org/2000/svg" xmlns:xlink="http://www.w3.org/1999/xlink" width="174" zoomAndPan="magnify" viewBox="0 0 130.5 30.000001" height="40" preserveAspectRatio="xMidYMid meet" version="1.0"><defs><g/><clipPath id="df60edd83b"><path d="M 1.863281 0 L 128.152344 0 L 128.152344 29.03125 L 1.863281 29.03125 Z M 1.863281 0 " clip-rule="nonzero"/></clipPath><clipPath id="b2003fd649"><path d="M 12.703125 16 L 17 16 L 17 21 L 12.703125 21 Z M 12.703125 16 " clip-rule="nonzero"/></clipPath><clipPath id="de62fe7919"><path d="M 12.703125 8 L 17 8 L 17 13 L 12.703125 13 Z M 12.703125 8 " clip-rule="nonzero"/></clipPath><clipPath id="e8d27528f5"><path d="M 37 16 L 41.117188 16 L 41.117188 21 L 37 21 Z M 37 16 " clip-rule="nonzero"/></clipPath><clipPath id="0bf5d4f844"><path d="M 29 25 L 33 25 L 33 28.785156 L 29 28.785156 Z M 29 25 " clip-rule="nonzero"/></clipPath><clipPath id="b596f9a519"><path d="M 21 25 L 25 25 L 25 28.785156 L 21 28.785156 Z M 21 25 " clip-rule="nonzero"/></clipPath><clipPath id="641224938e"><path d="M 29 0.371094 L 33 0.371094 L 33 4 L 29 4 Z M 29 0.371094 " clip-rule="nonzero"/></clipPath><clipPath id="70bb6b9ab1"><path d="M 21 0.371094 L 25 0.371094 L 25 4 L 21 4 Z M 21 0.371094 " clip-rule="nonzero"/></clipPath><clipPath id="a5e18c3887"><path d="M 37 8 L 41.117188 8 L 41.117188 13 L 37 13 Z M 37 8 " clip-rule="nonzero"/></clipPath></defs><g clip-path="url(#df60edd83b)"><path fill="#ffffff" d="M 1.863281 0 L 128.636719 0 L 128.636719 29.144531 L 1.863281 29.144531 Z M 1.863281 0 " fill-opacity="1" fill-rule="nonzero"/><path fill="#ffffff" d="M 1.863281 0 L 128.636719 0 L 128.636719 29.144531 L 1.863281 29.144531 Z M 1.863281 0 " fill-opacity="1" fill-rule="nonzero"/></g><path fill="#061120" d="M 34.613281 16.738281 L 32.097656 16.738281 C 31.695312 16.738281 31.308594 16.8125 30.9375 16.96875 C 30.566406 17.121094 30.238281 17.339844 29.953125 17.625 C 29.667969 17.910156 29.449219 18.238281 29.296875 18.613281 C 29.140625 18.984375 29.066406 19.371094 29.066406 19.773438 L 29.066406 22.265625 C 29.066406 22.496094 29.109375 22.714844 29.195312 22.925781 C 29.28125 23.136719 29.40625 23.320312 29.566406 23.484375 C 29.726562 23.644531 29.914062 23.769531 30.125 23.855469 C 30.335938 23.941406 30.554688 23.988281 30.78125 23.988281 C 31.007812 23.988281 31.226562 23.941406 31.4375 23.855469 C 31.648438 23.769531 31.832031 23.644531 31.996094 23.484375 C 32.15625 23.320312 32.28125 23.136719 32.367188 22.925781 C 32.453125 22.714844 32.496094 22.496094 32.496094 22.265625 L 32.496094 20.175781 L 34.613281 20.175781 C 34.839844 20.175781 35.058594 20.132812 35.269531 20.046875 C 35.480469 19.957031 35.664062 19.832031 35.824219 19.671875 C 35.988281 19.511719 36.109375 19.324219 36.199219 19.113281 C 36.285156 18.902344 36.328125 18.683594 36.328125 18.457031 C 36.328125 18.226562 36.285156 18.007812 36.199219 17.796875 C 36.109375 17.585938 35.988281 17.402344 35.824219 17.238281 C 35.664062 17.078125 35.480469 16.953125 35.269531 16.867188 C 35.058594 16.78125 34.839844 16.738281 34.613281 16.738281 Z M 34.613281 16.738281 " fill-opacity="1" fill-rule="nonzero"/><path fill="#061120" d="M 23.039062 5.191406 C 22.8125 5.191406 22.59375 5.234375 22.382812 5.320312 C 22.171875 5.410156 21.988281 5.53125 21.828125 5.695312 C 21.664062 5.855469 21.542969 6.042969 21.453125 6.253906 C 21.367188 6.464844 21.324219 6.683594 21.324219 6.914062 L 21.324219 8.984375 L 19.214844 8.984375 C 18.988281 8.984375 18.769531 9.027344 18.558594 9.113281 C 18.347656 9.203125 18.164062 9.328125 18.003906 9.488281 C 17.839844 9.648438 17.71875 9.835938 17.628906 10.046875 C 17.542969 10.257812 17.5 10.476562 17.5 10.703125 C 17.5 10.929688 17.542969 11.152344 17.628906 11.359375 C 17.71875 11.570312 17.839844 11.757812 18.003906 11.917969 C 18.164062 12.078125 18.347656 12.203125 18.558594 12.292969 C 18.769531 12.378906 18.988281 12.421875 19.214844 12.421875 L 21.722656 12.421875 C 22.125 12.421875 22.511719 12.347656 22.886719 12.191406 C 23.257812 12.039062 23.585938 11.816406 23.867188 11.53125 C 24.152344 11.246094 24.371094 10.917969 24.527344 10.546875 C 24.679688 10.175781 24.757812 9.785156 24.757812 9.382812 L 24.757812 6.914062 C 24.757812 6.683594 24.714844 6.464844 24.628906 6.253906 C 24.539062 6.042969 24.417969 5.855469 24.253906 5.695312 C 24.09375 5.53125 23.910156 5.410156 23.699219 5.320312 C 23.488281 5.234375 23.269531 5.191406 23.039062 5.191406 Z M 23.039062 5.191406 " fill-opacity="1" fill-rule="nonzero"/><path fill="#061120" d="M 21.722656 16.738281 L 19.214844 16.738281 C 18.988281 16.734375 18.769531 16.78125 18.558594 16.867188 C 18.347656 16.953125 18.160156 17.078125 18 17.238281 C 17.839844 17.402344 17.714844 17.585938 17.628906 17.796875 C 17.539062 18.007812 17.496094 18.226562 17.496094 18.457031 C 17.496094 18.683594 17.539062 18.902344 17.628906 19.113281 C 17.714844 19.324219 17.839844 19.511719 18 19.671875 C 18.160156 19.835938 18.347656 19.957031 18.558594 20.046875 C 18.769531 20.132812 18.988281 20.175781 19.214844 20.175781 L 21.324219 20.175781 L 21.324219 22.265625 C 21.324219 22.496094 21.367188 22.714844 21.457031 22.925781 C 21.542969 23.136719 21.667969 23.320312 21.828125 23.484375 C 21.988281 23.644531 22.171875 23.769531 22.382812 23.855469 C 22.59375 23.941406 22.8125 23.988281 23.039062 23.988281 C 23.269531 23.988281 23.488281 23.941406 23.699219 23.855469 C 23.90625 23.769531 24.09375 23.644531 24.253906 23.484375 C 24.414062 23.320312 24.539062 23.136719 24.625 22.925781 C 24.714844 22.714844 24.757812 22.496094 24.757812 22.265625 L 24.757812 19.773438 C 24.757812 19.371094 24.679688 18.984375 24.527344 18.613281 C 24.371094 18.238281 24.152344 17.910156 23.867188 17.625 C 23.585938 17.339844 23.257812 17.121094 22.886719 16.96875 C 22.511719 16.8125 22.125 16.738281 21.722656 16.738281 Z M 21.722656 16.738281 " fill-opacity="1" fill-rule="nonzero"/><path fill="#061120" d="M 32.097656 12.421875 L 34.613281 12.421875 C 34.839844 12.421875 35.058594 12.375 35.269531 12.289062 C 35.480469 12.203125 35.664062 12.078125 35.824219 11.917969 C 35.988281 11.753906 36.109375 11.570312 36.199219 11.359375 C 36.285156 11.148438 36.328125 10.929688 36.328125 10.699219 C 36.328125 10.472656 36.285156 10.253906 36.199219 10.042969 C 36.109375 9.832031 35.988281 9.644531 35.824219 9.484375 C 35.664062 9.324219 35.480469 9.199219 35.269531 9.113281 C 35.058594 9.023438 34.839844 8.980469 34.613281 8.980469 L 32.496094 8.980469 L 32.496094 6.914062 C 32.496094 6.683594 32.453125 6.464844 32.367188 6.253906 C 32.28125 6.042969 32.15625 5.859375 31.996094 5.695312 C 31.832031 5.535156 31.648438 5.410156 31.4375 5.324219 C 31.226562 5.234375 31.007812 5.191406 30.78125 5.191406 C 30.554688 5.191406 30.335938 5.234375 30.125 5.324219 C 29.914062 5.410156 29.726562 5.535156 29.566406 5.695312 C 29.40625 5.859375 29.28125 6.042969 29.195312 6.253906 C 29.109375 6.464844 29.066406 6.683594 29.066406 6.914062 L 29.066406 9.382812 C 29.066406 9.785156 29.140625 10.175781 29.296875 10.546875 C 29.449219 10.917969 29.667969 11.246094 29.953125 11.53125 C 30.238281 11.816406 30.566406 12.035156 30.9375 12.1875 C 31.308594 12.34375 31.695312 12.421875 32.097656 12.421875 Z M 32.097656 12.421875 " fill-opacity="1" fill-rule="nonzero"/><path fill="#5271ff" d="M 27.191406 12.421875 L 26.636719 12.421875 C 26.398438 12.449219 26.171875 12.519531 25.957031 12.625 C 25.742188 12.730469 25.550781 12.871094 25.378906 13.039062 C 25.210938 13.210938 25.070312 13.402344 24.964844 13.617188 C 24.859375 13.835938 24.792969 14.0625 24.761719 14.300781 L 24.761719 14.855469 C 24.792969 15.09375 24.859375 15.320312 24.964844 15.539062 C 25.070312 15.753906 25.210938 15.945312 25.378906 16.117188 C 25.550781 16.285156 25.742188 16.425781 25.957031 16.53125 C 26.171875 16.636719 26.398438 16.707031 26.636719 16.738281 L 27.191406 16.738281 C 27.429688 16.707031 27.65625 16.636719 27.871094 16.53125 C 28.085938 16.425781 28.28125 16.285156 28.449219 16.117188 C 28.621094 15.945312 28.757812 15.753906 28.863281 15.535156 C 28.96875 15.320312 29.039062 15.09375 29.066406 14.855469 L 29.066406 14.300781 C 29.039062 14.0625 28.96875 13.835938 28.863281 13.617188 C 28.757812 13.402344 28.621094 13.210938 28.449219 13.039062 C 28.28125 12.871094 28.085938 12.730469 27.871094 12.625 C 27.65625 12.519531 27.429688 12.449219 27.191406 12.421875 Z M 27.191406 12.421875 " fill-opacity="1" fill-rule="nonzero"/><g clip-path="url(#b2003fd649)"><path fill="#5271ff" d="M 16.152344 18.457031 C 16.152344 18.226562 16.109375 18.007812 16.023438 17.796875 C 15.933594 17.585938 15.8125 17.402344 15.648438 17.238281 C 15.488281 17.078125 15.304688 16.953125 15.09375 16.867188 C 14.882812 16.78125 14.664062 16.738281 14.4375 16.738281 C 14.207031 16.738281 13.988281 16.78125 13.78125 16.867188 C 13.570312 16.953125 13.382812 17.078125 13.222656 17.238281 C 13.0625 17.402344 12.9375 17.585938 12.851562 17.796875 C 12.761719 18.007812 12.71875 18.226562 12.71875 18.457031 C 12.71875 18.527344 12.726562 18.597656 12.734375 18.664062 C 12.789062 18.859375 12.847656 19.054688 12.914062 19.246094 C 13.09375 19.597656 13.367188 19.855469 13.726562 20.019531 C 14.085938 20.183594 14.457031 20.21875 14.84375 20.125 C 15.226562 20.03125 15.542969 19.832031 15.785156 19.519531 C 16.03125 19.207031 16.152344 18.851562 16.152344 18.457031 Z M 16.152344 18.457031 " fill-opacity="1" fill-rule="nonzero"/></g><g clip-path="url(#de62fe7919)"><path fill="#5271ff" d="M 16.152344 10.699219 C 16.152344 10.304688 16.03125 9.949219 15.785156 9.636719 C 15.542969 9.324219 15.226562 9.125 14.84375 9.027344 C 14.457031 8.933594 14.085938 8.96875 13.726562 9.132812 C 13.367188 9.296875 13.09375 9.558594 12.914062 9.910156 C 12.847656 10.101562 12.789062 10.296875 12.734375 10.492188 C 12.726562 10.558594 12.71875 10.628906 12.71875 10.699219 C 12.71875 10.929688 12.761719 11.148438 12.851562 11.359375 C 12.9375 11.570312 13.0625 11.753906 13.222656 11.917969 C 13.382812 12.078125 13.570312 12.203125 13.78125 12.289062 C 13.988281 12.375 14.207031 12.421875 14.4375 12.421875 C 14.664062 12.421875 14.882812 12.375 15.09375 12.289062 C 15.304688 12.203125 15.488281 12.078125 15.648438 11.917969 C 15.8125 11.753906 15.933594 11.570312 16.023438 11.359375 C 16.109375 11.148438 16.152344 10.929688 16.152344 10.699219 Z M 16.152344 10.699219 " fill-opacity="1" fill-rule="nonzero"/></g><g clip-path="url(#e8d27528f5)"><path fill="#5271ff" d="M 41.101562 18.457031 C 41.101562 18.234375 41.058594 18.019531 40.976562 17.816406 C 40.890625 17.609375 40.773438 17.425781 40.621094 17.265625 C 40.464844 17.109375 40.289062 16.984375 40.085938 16.890625 C 39.882812 16.800781 39.671875 16.753906 39.449219 16.746094 C 39.230469 16.734375 39.015625 16.769531 38.804688 16.84375 C 38.597656 16.917969 38.410156 17.03125 38.246094 17.175781 C 38.078125 17.324219 37.945312 17.5 37.847656 17.695312 C 37.75 17.894531 37.691406 18.105469 37.675781 18.328125 L 37.675781 18.585938 C 37.703125 18.96875 37.84375 19.304688 38.097656 19.59375 C 38.351562 19.882812 38.667969 20.066406 39.042969 20.140625 C 39.417969 20.21875 39.78125 20.175781 40.125 20.007812 C 40.472656 19.84375 40.734375 19.589844 40.910156 19.246094 C 40.972656 19.054688 41.03125 18.859375 41.089844 18.664062 C 41.097656 18.597656 41.101562 18.527344 41.101562 18.457031 Z M 41.101562 18.457031 " fill-opacity="1" fill-rule="nonzero"/></g><g clip-path="url(#0bf5d4f844)"><path fill="#5271ff" d="M 30.78125 25.347656 C 30.542969 25.347656 30.3125 25.398438 30.09375 25.496094 C 29.878906 25.59375 29.6875 25.730469 29.527344 25.90625 C 29.367188 26.085938 29.246094 26.285156 29.171875 26.511719 C 29.09375 26.742188 29.066406 26.972656 29.085938 27.210938 C 29.105469 27.449219 29.171875 27.675781 29.289062 27.886719 C 29.402344 28.09375 29.550781 28.273438 29.742188 28.421875 C 29.929688 28.570312 30.140625 28.671875 30.371094 28.730469 C 30.601562 28.789062 30.835938 28.800781 31.070312 28.761719 C 31.214844 28.71875 31.359375 28.675781 31.5 28.628906 C 31.867188 28.460938 32.140625 28.195312 32.316406 27.832031 C 32.496094 27.46875 32.542969 27.09375 32.457031 26.699219 C 32.371094 26.304688 32.171875 25.980469 31.855469 25.726562 C 31.542969 25.472656 31.183594 25.347656 30.78125 25.347656 Z M 30.78125 25.347656 " fill-opacity="1" fill-rule="nonzero"/></g><g clip-path="url(#b596f9a519)"><path fill="#5271ff" d="M 23.039062 25.347656 C 22.636719 25.34375 22.277344 25.472656 21.964844 25.726562 C 21.648438 25.976562 21.449219 26.300781 21.363281 26.695312 C 21.273438 27.089844 21.320312 27.46875 21.5 27.832031 C 21.679688 28.195312 21.953125 28.460938 22.320312 28.628906 C 22.464844 28.675781 22.605469 28.71875 22.75 28.761719 C 22.988281 28.804688 23.222656 28.796875 23.457031 28.738281 C 23.6875 28.679688 23.902344 28.578125 24.089844 28.429688 C 24.28125 28.28125 24.433594 28.101562 24.550781 27.890625 C 24.664062 27.679688 24.730469 27.453125 24.753906 27.214844 C 24.773438 26.972656 24.742188 26.742188 24.667969 26.511719 C 24.589844 26.285156 24.46875 26.082031 24.304688 25.90625 C 24.144531 25.726562 23.953125 25.589844 23.730469 25.492188 C 23.511719 25.398438 23.28125 25.347656 23.039062 25.347656 Z M 23.039062 25.347656 " fill-opacity="1" fill-rule="nonzero"/></g><g clip-path="url(#641224938e)"><path fill="#5271ff" d="M 30.78125 3.808594 C 31.183594 3.808594 31.542969 3.683594 31.855469 3.429688 C 32.167969 3.175781 32.371094 2.851562 32.457031 2.457031 C 32.542969 2.0625 32.496094 1.6875 32.316406 1.324219 C 32.136719 0.964844 31.863281 0.699219 31.5 0.527344 C 31.355469 0.484375 31.214844 0.4375 31.070312 0.394531 C 30.832031 0.355469 30.597656 0.363281 30.367188 0.421875 C 30.132812 0.480469 29.921875 0.585938 29.734375 0.730469 C 29.542969 0.878906 29.390625 1.058594 29.277344 1.269531 C 29.164062 1.480469 29.09375 1.707031 29.074219 1.945312 C 29.054688 2.183594 29.082031 2.417969 29.160156 2.644531 C 29.238281 2.871094 29.359375 3.074219 29.519531 3.253906 C 29.683594 3.429688 29.875 3.566406 30.09375 3.664062 C 30.3125 3.761719 30.542969 3.808594 30.78125 3.808594 Z M 30.78125 3.808594 " fill-opacity="1" fill-rule="nonzero"/></g><g clip-path="url(#70bb6b9ab1)"><path fill="#5271ff" d="M 23.039062 3.808594 C 23.28125 3.808594 23.511719 3.761719 23.730469 3.664062 C 23.949219 3.566406 24.140625 3.429688 24.304688 3.253906 C 24.46875 3.074219 24.585938 2.871094 24.664062 2.644531 C 24.742188 2.417969 24.769531 2.183594 24.75 1.945312 C 24.730469 1.703125 24.660156 1.476562 24.546875 1.265625 C 24.429688 1.054688 24.277344 0.875 24.089844 0.730469 C 23.898438 0.582031 23.6875 0.480469 23.453125 0.421875 C 23.21875 0.363281 22.984375 0.355469 22.75 0.394531 C 22.605469 0.4375 22.460938 0.484375 22.320312 0.53125 C 21.953125 0.699219 21.683594 0.964844 21.503906 1.328125 C 21.324219 1.6875 21.277344 2.066406 21.367188 2.460938 C 21.453125 2.855469 21.652344 3.179688 21.964844 3.429688 C 22.28125 3.683594 22.636719 3.808594 23.039062 3.808594 Z M 23.039062 3.808594 " fill-opacity="1" fill-rule="nonzero"/></g><g clip-path="url(#a5e18c3887)"><path fill="#5271ff" d="M 37.675781 10.570312 L 37.675781 10.828125 C 37.691406 11.050781 37.75 11.261719 37.847656 11.460938 C 37.945312 11.660156 38.078125 11.832031 38.246094 11.980469 C 38.410156 12.125 38.597656 12.238281 38.804688 12.3125 C 39.015625 12.386719 39.230469 12.421875 39.449219 12.414062 C 39.671875 12.402344 39.882812 12.355469 40.085938 12.265625 C 40.289062 12.171875 40.464844 12.046875 40.621094 11.890625 C 40.773438 11.730469 40.890625 11.546875 40.976562 11.339844 C 41.058594 11.136719 41.101562 10.921875 41.101562 10.699219 C 41.101562 10.628906 41.097656 10.558594 41.089844 10.492188 C 41.03125 10.296875 40.972656 10.101562 40.910156 9.910156 C 40.734375 9.566406 40.472656 9.3125 40.125 9.148438 C 39.777344 8.984375 39.417969 8.9375 39.042969 9.015625 C 38.667969 9.09375 38.351562 9.277344 38.097656 9.5625 C 37.84375 9.851562 37.703125 10.1875 37.675781 10.570312 Z M 37.675781 10.570312 " fill-opacity="1" fill-rule="nonzero"/></g><g fill="#061120" fill-opacity="1"><g transform="translate(43.347215, 15.294935)"><g><path d="M 9.84375 -2.703125 C 9.84375 -2.222656 9.742188 -1.8125 9.546875 -1.46875 C 9.347656 -1.132812 9.078125 -0.859375 8.734375 -0.640625 C 8.390625 -0.421875 7.988281 -0.257812 7.53125 -0.15625 C 7.070312 -0.0507812 6.585938 0 6.078125 0 L 0.90625 0 L 0.90625 -10.515625 L 7 -10.515625 C 7.363281 -10.515625 7.691406 -10.4375 7.984375 -10.28125 C 8.285156 -10.125 8.539062 -9.914062 8.75 -9.65625 C 8.957031 -9.40625 9.117188 -9.117188 9.234375 -8.796875 C 9.347656 -8.484375 9.40625 -8.160156 9.40625 -7.828125 C 9.40625 -7.328125 9.28125 -6.851562 9.03125 -6.40625 C 8.78125 -5.957031 8.398438 -5.617188 7.890625 -5.390625 C 8.492188 -5.210938 8.96875 -4.90625 9.3125 -4.46875 C 9.664062 -4.03125 9.84375 -3.441406 9.84375 -2.703125 Z M 6.921875 -3.28125 C 6.921875 -3.539062 6.847656 -3.753906 6.703125 -3.921875 C 6.566406 -4.097656 6.390625 -4.1875 6.171875 -4.1875 L 3.796875 -4.1875 L 3.796875 -2.421875 L 6.078125 -2.421875 C 6.304688 -2.421875 6.503906 -2.492188 6.671875 -2.640625 C 6.835938 -2.796875 6.921875 -3.007812 6.921875 -3.28125 Z M 3.796875 -8.0625 L 3.796875 -6.4375 L 5.765625 -6.4375 C 5.960938 -6.4375 6.140625 -6.488281 6.296875 -6.59375 C 6.460938 -6.707031 6.546875 -6.929688 6.546875 -7.265625 C 6.546875 -7.546875 6.472656 -7.75 6.328125 -7.875 C 6.191406 -8 6.03125 -8.0625 5.84375 -8.0625 Z M 3.796875 -8.0625 "/></g></g></g><g fill="#061120" fill-opacity="1"><g transform="translate(55.033381, 15.294935)"><g><path d="M 2.9375 -10.515625 L 4.8125 -5.96875 L 6.734375 -10.515625 L 9.875 -10.515625 L 6.25 -3.484375 L 6.25 0 L 3.375 0 L 3.375 -3.515625 L -0.1875 -10.515625 Z M 2.9375 -10.515625 "/></g></g></g><g fill="#061120" fill-opacity="1"><g transform="translate(66.171551, 15.294935)"><g><path d="M 9.09375 -8 L 6.078125 -8 L 6.078125 0 L 3.1875 0 L 3.1875 -8 L 0.140625 -8 L 0.140625 -10.515625 L 9.09375 -10.515625 Z M 9.09375 -8 "/></g></g></g><g fill="#061120" fill-opacity="1"><g transform="translate(76.895019, 15.294935)"><g><path d="M 8.40625 -2.515625 L 8.40625 0 L 0.90625 0 L 0.90625 -10.515625 L 8.265625 -10.515625 L 8.265625 -8 L 3.796875 -8 L 3.796875 -6.515625 L 7.609375 -6.515625 L 7.609375 -4.171875 L 3.796875 -4.171875 L 3.796875 -2.515625 Z M 8.40625 -2.515625 "/></g></g></g><g fill="#061120" fill-opacity="1"><g transform="translate(87.218599, 15.294935)"><g><path d="M 9.84375 -2.703125 C 9.84375 -2.222656 9.742188 -1.8125 9.546875 -1.46875 C 9.347656 -1.132812 9.078125 -0.859375 8.734375 -0.640625 C 8.390625 -0.421875 7.988281 -0.257812 7.53125 -0.15625 C 7.070312 -0.0507812 6.585938 0 6.078125 0 L 0.90625 0 L 0.90625 -10.515625 L 7 -10.515625 C 7.363281 -10.515625 7.691406 -10.4375 7.984375 -10.28125 C 8.285156 -10.125 8.539062 -9.914062 8.75 -9.65625 C 8.957031 -9.40625 9.117188 -9.117188 9.234375 -8.796875 C 9.347656 -8.484375 9.40625 -8.160156 9.40625 -7.828125 C 9.40625 -7.328125 9.28125 -6.851562 9.03125 -6.40625 C 8.78125 -5.957031 8.398438 -5.617188 7.890625 -5.390625 C 8.492188 -5.210938 8.96875 -4.90625 9.3125 -4.46875 C 9.664062 -4.03125 9.84375 -3.441406 9.84375 -2.703125 Z M 6.921875 -3.28125 C 6.921875 -3.539062 6.847656 -3.753906 6.703125 -3.921875 C 6.566406 -4.097656 6.390625 -4.1875 6.171875 -4.1875 L 3.796875 -4.1875 L 3.796875 -2.421875 L 6.078125 -2.421875 C 6.304688 -2.421875 6.503906 -2.492188 6.671875 -2.640625 C 6.835938 -2.796875 6.921875 -3.007812 6.921875 -3.28125 Z M 3.796875 -8.0625 L 3.796875 -6.4375 L 5.765625 -6.4375 C 5.960938 -6.4375 6.140625 -6.488281 6.296875 -6.59375 C 6.460938 -6.707031 6.546875 -6.929688 6.546875 -7.265625 C 6.546875 -7.546875 6.472656 -7.75 6.328125 -7.875 C 6.191406 -8 6.03125 -8.0625 5.84375 -8.0625 Z M 3.796875 -8.0625 "/></g></g></g><g fill="#061120" fill-opacity="1"><g transform="translate(98.904766, 15.294935)"><g><path d="M 5.359375 0.09375 C 4.609375 0.09375 3.925781 -0.0546875 3.3125 -0.359375 C 2.695312 -0.671875 2.164062 -1.078125 1.71875 -1.578125 C 1.28125 -2.078125 0.941406 -2.644531 0.703125 -3.28125 C 0.460938 -3.925781 0.34375 -4.585938 0.34375 -5.265625 C 0.34375 -5.960938 0.46875 -6.628906 0.71875 -7.265625 C 0.96875 -7.910156 1.316406 -8.476562 1.765625 -8.96875 C 2.222656 -9.457031 2.757812 -9.847656 3.375 -10.140625 C 4 -10.429688 4.679688 -10.578125 5.421875 -10.578125 C 6.171875 -10.578125 6.851562 -10.421875 7.46875 -10.109375 C 8.09375 -9.804688 8.625 -9.398438 9.0625 -8.890625 C 9.5 -8.390625 9.832031 -7.816406 10.0625 -7.171875 C 10.300781 -6.535156 10.421875 -5.882812 10.421875 -5.21875 C 10.421875 -4.519531 10.296875 -3.851562 10.046875 -3.21875 C 9.796875 -2.582031 9.445312 -2.019531 9 -1.53125 C 8.5625 -1.039062 8.03125 -0.644531 7.40625 -0.34375 C 6.78125 -0.0507812 6.097656 0.09375 5.359375 0.09375 Z M 3.28125 -5.25 C 3.28125 -4.882812 3.320312 -4.535156 3.40625 -4.203125 C 3.488281 -3.878906 3.617188 -3.585938 3.796875 -3.328125 C 3.972656 -3.078125 4.191406 -2.867188 4.453125 -2.703125 C 4.722656 -2.546875 5.035156 -2.46875 5.390625 -2.46875 C 5.753906 -2.46875 6.066406 -2.550781 6.328125 -2.71875 C 6.597656 -2.882812 6.816406 -3.097656 6.984375 -3.359375 C 7.160156 -3.617188 7.289062 -3.914062 7.375 -4.25 C 7.457031 -4.582031 7.5 -4.921875 7.5 -5.265625 C 7.5 -5.628906 7.453125 -5.972656 7.359375 -6.296875 C 7.273438 -6.628906 7.144531 -6.921875 6.96875 -7.171875 C 6.789062 -7.421875 6.566406 -7.625 6.296875 -7.78125 C 6.035156 -7.9375 5.726562 -8.015625 5.375 -8.015625 C 5.007812 -8.015625 4.695312 -7.9375 4.4375 -7.78125 C 4.175781 -7.625 3.957031 -7.410156 3.78125 -7.140625 C 3.613281 -6.878906 3.488281 -6.582031 3.40625 -6.25 C 3.320312 -5.925781 3.28125 -5.59375 3.28125 -5.25 Z M 3.28125 -5.25 "/></g></g></g><g fill="#061120" fill-opacity="1"><g transform="translate(111.15374, 15.294935)"><g><path d="M 7.453125 -0.859375 C 6.785156 -0.234375 6.019531 0.078125 5.15625 0.078125 C 4.5 0.078125 3.878906 -0.0664062 3.296875 -0.359375 C 2.710938 -0.648438 2.203125 -1.039062 1.765625 -1.53125 C 1.328125 -2.03125 0.976562 -2.609375 0.71875 -3.265625 C 0.46875 -3.921875 0.34375 -4.613281 0.34375 -5.34375 C 0.34375 -6.082031 0.472656 -6.769531 0.734375 -7.40625 C 0.992188 -8.050781 1.351562 -8.609375 1.8125 -9.078125 C 2.269531 -9.546875 2.8125 -9.914062 3.4375 -10.1875 C 4.0625 -10.457031 4.726562 -10.59375 5.4375 -10.59375 C 5.882812 -10.59375 6.304688 -10.539062 6.703125 -10.4375 C 7.109375 -10.332031 7.484375 -10.175781 7.828125 -9.96875 C 8.179688 -9.769531 8.492188 -9.53125 8.765625 -9.25 C 9.035156 -8.96875 9.257812 -8.648438 9.4375 -8.296875 L 7.28125 -6.65625 C 7.101562 -7.0625 6.832031 -7.390625 6.46875 -7.640625 C 6.113281 -7.898438 5.734375 -8.03125 5.328125 -8.03125 C 5.035156 -8.03125 4.757812 -7.957031 4.5 -7.8125 C 4.25 -7.675781 4.03125 -7.484375 3.84375 -7.234375 C 3.664062 -6.992188 3.523438 -6.703125 3.421875 -6.359375 C 3.328125 -6.015625 3.28125 -5.644531 3.28125 -5.25 C 3.28125 -4.832031 3.328125 -4.453125 3.421875 -4.109375 C 3.523438 -3.773438 3.671875 -3.488281 3.859375 -3.25 C 4.046875 -3.007812 4.269531 -2.820312 4.53125 -2.6875 C 4.800781 -2.550781 5.09375 -2.484375 5.40625 -2.484375 C 5.757812 -2.484375 6.101562 -2.570312 6.4375 -2.75 C 6.769531 -2.925781 7.078125 -3.1875 7.359375 -3.53125 L 5.515625 -3.53125 L 5.515625 -5.59375 L 9.828125 -5.59375 L 9.828125 0 L 7.453125 0 Z M 7.453125 -0.859375 "/></g></g></g><g fill="#5271ff" fill-opacity="1"><g transform="translate(43.347215, 22.775732)"><g><path d="M 3.050781 0.109375 C 3.820312 0.109375 4.5 -0.183594 4.992188 -0.660156 C 5.054688 -0.722656 5.042969 -0.789062 4.972656 -0.851562 L 4.664062 -1.089844 C 4.589844 -1.152344 4.527344 -1.144531 4.46875 -1.085938 C 4.097656 -0.75 3.601562 -0.542969 3.058594 -0.542969 C 1.910156 -0.542969 0.976562 -1.40625 0.976562 -2.65625 C 0.976562 -3.902344 1.910156 -4.761719 3.042969 -4.761719 C 3.601562 -4.761719 4.089844 -4.554688 4.46875 -4.214844 C 4.527344 -4.15625 4.597656 -4.148438 4.664062 -4.210938 L 4.972656 -4.457031 C 5.035156 -4.519531 5.046875 -4.585938 4.976562 -4.652344 C 4.484375 -5.125 3.816406 -5.414062 3.042969 -5.414062 C 1.539062 -5.414062 0.300781 -4.289062 0.300781 -2.652344 C 0.300781 -1.011719 1.53125 0.109375 3.050781 0.109375 Z M 3.050781 0.109375 "/></g></g></g><g fill="#5271ff" fill-opacity="1"><g transform="translate(49.322539, 22.775732)"><g><path d="M 0.777344 -3.878906 C 1.023438 -3.878906 1.210938 -4.066406 1.210938 -4.320312 C 1.210938 -4.566406 1.023438 -4.761719 0.777344 -4.761719 C 0.519531 -4.761719 0.335938 -4.566406 0.335938 -4.320312 C 0.335938 -4.066406 0.519531 -3.878906 0.777344 -3.878906 Z M 0.949219 0 C 1.042969 0 1.089844 -0.046875 1.089844 -0.140625 L 1.089844 -3.292969 C 1.089844 -3.382812 1.042969 -3.433594 0.949219 -3.433594 L 0.605469 -3.433594 C 0.515625 -3.433594 0.460938 -3.382812 0.460938 -3.292969 L 0.460938 -0.140625 C 0.460938 -0.046875 0.515625 0 0.605469 0 Z M 0.949219 0 "/></g></g></g><g fill="#5271ff" fill-opacity="1"><g transform="translate(51.60761, 22.775732)"><g><path d="M 2.332031 -3.507812 C 1.867188 -3.507812 1.414062 -3.328125 1.09375 -3 L 1.097656 -5.160156 C 1.097656 -5.253906 1.050781 -5.300781 0.957031 -5.300781 L 0.609375 -5.300781 C 0.519531 -5.300781 0.472656 -5.253906 0.472656 -5.160156 L 0.460938 -0.140625 C 0.460938 -0.046875 0.515625 0 0.605469 0 L 0.796875 0 C 0.882812 0 0.9375 -0.0390625 0.953125 -0.128906 L 1.023438 -0.511719 C 1.347656 -0.132812 1.828125 0.0742188 2.332031 0.0742188 C 3.316406 0.0742188 4.105469 -0.730469 4.105469 -1.714844 C 4.105469 -2.703125 3.316406 -3.507812 2.332031 -3.507812 Z M 2.28125 -0.519531 C 1.625 -0.519531 1.085938 -1.058594 1.085938 -1.714844 C 1.085938 -2.371094 1.625 -2.910156 2.28125 -2.910156 C 2.9375 -2.910156 3.476562 -2.371094 3.476562 -1.714844 C 3.476562 -1.058594 2.9375 -0.519531 2.28125 -0.519531 Z M 2.28125 -0.519531 "/></g></g></g><g fill="#5271ff" fill-opacity="1"><g transform="translate(56.744083, 22.775732)"><g><path d="M 2.019531 -3.507812 C 1.066406 -3.507812 0.3125 -2.785156 0.3125 -1.714844 C 0.3125 -0.640625 1.085938 0.0742188 2.035156 0.0742188 C 2.617188 0.0742188 3.160156 -0.222656 3.488281 -0.71875 C 3.539062 -0.796875 3.523438 -0.859375 3.449219 -0.902344 L 3.203125 -1.082031 C 3.132812 -1.125 3.082031 -1.113281 3.027344 -1.039062 C 2.785156 -0.699219 2.417969 -0.519531 2.046875 -0.519531 C 1.460938 -0.519531 0.96875 -0.949219 0.941406 -1.636719 L 3.570312 -1.636719 C 3.644531 -1.636719 3.710938 -1.652344 3.710938 -1.769531 C 3.710938 -2.785156 2.972656 -3.507812 2.019531 -3.507812 Z M 2.027344 -2.929688 C 2.480469 -2.929688 2.894531 -2.652344 3.023438 -2.152344 L 0.996094 -2.152344 C 1.140625 -2.65625 1.582031 -2.929688 2.027344 -2.929688 Z M 2.027344 -2.929688 "/></g></g></g><g fill="#5271ff" fill-opacity="1"><g transform="translate(61.476665, 22.775732)"><g><path d="M 0.949219 0 C 1.042969 0 1.089844 -0.046875 1.089844 -0.140625 L 1.089844 -1.835938 C 1.089844 -2.542969 1.394531 -2.910156 1.871094 -2.910156 C 1.929688 -2.910156 2 -2.902344 2.078125 -2.886719 C 2.164062 -2.867188 2.226562 -2.894531 2.246094 -2.984375 L 2.332031 -3.296875 C 2.355469 -3.378906 2.320312 -3.445312 2.238281 -3.464844 C 2.128906 -3.488281 2.03125 -3.507812 1.9375 -3.507812 C 1.574219 -3.507812 1.234375 -3.335938 1.023438 -2.921875 L 0.953125 -3.308594 C 0.933594 -3.398438 0.878906 -3.433594 0.796875 -3.433594 L 0.605469 -3.433594 C 0.511719 -3.433594 0.460938 -3.382812 0.460938 -3.292969 L 0.460938 -0.140625 C 0.460938 -0.046875 0.515625 0 0.605469 0 Z M 0.949219 0 "/></g></g></g><g fill="#5271ff" fill-opacity="1"><g transform="translate(64.69034, 22.775732)"><g><path d="M 1.417969 0.0742188 C 2.058594 0.0742188 2.605469 -0.210938 2.605469 -0.921875 C 2.605469 -1.460938 2.152344 -1.734375 1.726562 -1.957031 C 1.332031 -2.164062 0.96875 -2.3125 0.96875 -2.585938 C 0.96875 -2.816406 1.175781 -2.941406 1.476562 -2.941406 C 1.664062 -2.941406 1.890625 -2.894531 2.121094 -2.804688 C 2.210938 -2.769531 2.269531 -2.789062 2.304688 -2.878906 L 2.410156 -3.175781 C 2.445312 -3.261719 2.414062 -3.332031 2.324219 -3.355469 C 2.019531 -3.457031 1.722656 -3.507812 1.46875 -3.507812 C 0.851562 -3.507812 0.34375 -3.160156 0.34375 -2.539062 C 0.34375 -2.003906 0.808594 -1.746094 1.234375 -1.507812 C 1.601562 -1.308594 1.945312 -1.132812 1.945312 -0.890625 C 1.945312 -0.582031 1.730469 -0.476562 1.425781 -0.476562 C 1.195312 -0.476562 0.910156 -0.539062 0.636719 -0.671875 C 0.535156 -0.71875 0.488281 -0.695312 0.453125 -0.609375 L 0.332031 -0.292969 C 0.296875 -0.214844 0.304688 -0.15625 0.414062 -0.117188 C 0.757812 0.0117188 1.101562 0.0742188 1.417969 0.0742188 Z M 1.417969 0.0742188 "/></g></g></g><g fill="#5271ff" fill-opacity="1"><g transform="translate(68.318263, 22.775732)"><g><path d="M 2.019531 -3.507812 C 1.066406 -3.507812 0.3125 -2.785156 0.3125 -1.714844 C 0.3125 -0.640625 1.085938 0.0742188 2.035156 0.0742188 C 2.617188 0.0742188 3.160156 -0.222656 3.488281 -0.71875 C 3.539062 -0.796875 3.523438 -0.859375 3.449219 -0.902344 L 3.203125 -1.082031 C 3.132812 -1.125 3.082031 -1.113281 3.027344 -1.039062 C 2.785156 -0.699219 2.417969 -0.519531 2.046875 -0.519531 C 1.460938 -0.519531 0.96875 -0.949219 0.941406 -1.636719 L 3.570312 -1.636719 C 3.644531 -1.636719 3.710938 -1.652344 3.710938 -1.769531 C 3.710938 -2.785156 2.972656 -3.507812 2.019531 -3.507812 Z M 2.027344 -2.929688 C 2.480469 -2.929688 2.894531 -2.652344 3.023438 -2.152344 L 0.996094 -2.152344 C 1.140625 -2.65625 1.582031 -2.929688 2.027344 -2.929688 Z M 2.027344 -2.929688 "/></g></g></g><g fill="#5271ff" fill-opacity="1"><g transform="translate(73.050845, 22.775732)"><g><path d="M 3.578125 -3.433594 C 3.492188 -3.433594 3.4375 -3.398438 3.421875 -3.308594 L 3.347656 -2.925781 C 3.03125 -3.300781 2.550781 -3.507812 2.058594 -3.507812 C 1.078125 -3.507812 0.300781 -2.703125 0.300781 -1.714844 C 0.300781 -0.730469 1.078125 0.046875 2.058594 0.046875 C 2.511719 0.046875 2.960938 -0.128906 3.28125 -0.484375 L 3.28125 -0.0390625 C 3.28125 0.789062 2.765625 1.113281 2.183594 1.113281 C 1.683594 1.113281 1.28125 0.890625 1.019531 0.550781 C 0.964844 0.472656 0.90625 0.453125 0.828125 0.5 L 0.609375 0.710938 C 0.53125 0.757812 0.511719 0.824219 0.558594 0.894531 C 0.929688 1.398438 1.511719 1.714844 2.195312 1.714844 C 3.132812 1.714844 3.914062 1.136719 3.914062 -0.0429688 L 3.917969 -3.292969 C 3.917969 -3.382812 3.875 -3.433594 3.78125 -3.433594 Z M 2.109375 -0.546875 C 1.460938 -0.546875 0.925781 -1.074219 0.925781 -1.730469 C 0.925781 -2.386719 1.460938 -2.910156 2.109375 -2.910156 C 2.753906 -2.910156 3.289062 -2.386719 3.289062 -1.730469 C 3.289062 -1.074219 2.753906 -0.546875 2.109375 -0.546875 Z M 2.109375 -0.546875 "/></g></g></g><g fill="#5271ff" fill-opacity="1"><g transform="translate(78.166606, 22.775732)"><g><path d="M 1.816406 0.0742188 C 2.601562 0.0742188 3.21875 -0.40625 3.21875 -1.308594 L 3.21875 -3.292969 C 3.21875 -3.382812 3.167969 -3.433594 3.074219 -3.433594 L 2.734375 -3.433594 C 2.640625 -3.433594 2.59375 -3.382812 2.59375 -3.292969 L 2.59375 -1.320312 C 2.59375 -0.78125 2.261719 -0.527344 1.816406 -0.527344 C 1.378906 -0.527344 1.042969 -0.773438 1.042969 -1.320312 L 1.042969 -3.292969 C 1.042969 -3.382812 0.996094 -3.433594 0.902344 -3.433594 L 0.558594 -3.433594 C 0.464844 -3.433594 0.417969 -3.382812 0.417969 -3.292969 L 0.417969 -1.308594 C 0.417969 -0.40625 1.023438 0.0742188 1.816406 0.0742188 Z M 1.816406 0.0742188 "/></g></g></g><g fill="#5271ff" fill-opacity="1"><g transform="translate(82.529817, 22.775732)"><g><path d="M 0.949219 0 C 1.042969 0 1.089844 -0.046875 1.089844 -0.140625 L 1.089844 -1.835938 C 1.089844 -2.542969 1.394531 -2.910156 1.871094 -2.910156 C 1.929688 -2.910156 2 -2.902344 2.078125 -2.886719 C 2.164062 -2.867188 2.226562 -2.894531 2.246094 -2.984375 L 2.332031 -3.296875 C 2.355469 -3.378906 2.320312 -3.445312 2.238281 -3.464844 C 2.128906 -3.488281 2.03125 -3.507812 1.9375 -3.507812 C 1.574219 -3.507812 1.234375 -3.335938 1.023438 -2.921875 L 0.953125 -3.308594 C 0.933594 -3.398438 0.878906 -3.433594 0.796875 -3.433594 L 0.605469 -3.433594 C 0.511719 -3.433594 0.460938 -3.382812 0.460938 -3.292969 L 0.460938 -0.140625 C 0.460938 -0.046875 0.515625 0 0.605469 0 Z M 0.949219 0 "/></g></g></g><g fill="#5271ff" fill-opacity="1"><g transform="translate(85.743493, 22.775732)"><g><path d="M 0.777344 -3.878906 C 1.023438 -3.878906 1.210938 -4.066406 1.210938 -4.320312 C 1.210938 -4.566406 1.023438 -4.761719 0.777344 -4.761719 C 0.519531 -4.761719 0.335938 -4.566406 0.335938 -4.320312 C 0.335938 -4.066406 0.519531 -3.878906 0.777344 -3.878906 Z M 0.949219 0 C 1.042969 0 1.089844 -0.046875 1.089844 -0.140625 L 1.089844 -3.292969 C 1.089844 -3.382812 1.042969 -3.433594 0.949219 -3.433594 L 0.605469 -3.433594 C 0.515625 -3.433594 0.460938 -3.382812 0.460938 -3.292969 L 0.460938 -0.140625 C 0.460938 -0.046875 0.515625 0 0.605469 0 Z M 0.949219 0 "/></g></g></g><g fill="#5271ff" fill-opacity="1"><g transform="translate(88.028563, 22.775732)"><g><path d="M 3.933594 -5.160156 C 3.933594 -5.253906 3.886719 -5.300781 3.796875 -5.300781 L 3.453125 -5.300781 C 3.359375 -5.300781 3.308594 -5.253906 3.308594 -5.160156 L 3.3125 -3 C 2.992188 -3.328125 2.539062 -3.507812 2.078125 -3.507812 C 1.089844 -3.507812 0.304688 -2.703125 0.304688 -1.714844 C 0.304688 -0.730469 1.089844 0.0742188 2.078125 0.0742188 C 2.578125 0.0742188 3.0625 -0.132812 3.382812 -0.511719 L 3.457031 -0.128906 C 3.46875 -0.0390625 3.523438 0 3.609375 0 L 3.804688 0 C 3.894531 0 3.945312 -0.046875 3.945312 -0.140625 Z M 2.125 -0.519531 C 1.46875 -0.519531 0.933594 -1.058594 0.933594 -1.714844 C 0.933594 -2.371094 1.46875 -2.910156 2.125 -2.910156 C 2.78125 -2.910156 3.320312 -2.371094 3.320312 -1.714844 C 3.320312 -1.058594 2.78125 -0.519531 2.125 -0.519531 Z M 2.125 -0.519531 "/></g></g></g><g fill="#5271ff" fill-opacity="1"><g transform="translate(93.165037, 22.775732)"><g><path d="M 1.757812 -3.507812 C 1.390625 -3.507812 0.996094 -3.433594 0.609375 -3.304688 C 0.519531 -3.269531 0.488281 -3.214844 0.519531 -3.121094 L 0.597656 -2.863281 C 0.628906 -2.777344 0.6875 -2.746094 0.777344 -2.777344 C 1.089844 -2.882812 1.410156 -2.953125 1.699219 -2.953125 C 2.148438 -2.953125 2.496094 -2.777344 2.496094 -2.261719 L 2.496094 -1.984375 C 2.21875 -2.042969 1.957031 -2.074219 1.707031 -2.074219 C 0.902344 -2.074219 0.300781 -1.707031 0.300781 -0.945312 C 0.300781 -0.230469 0.824219 0.0742188 1.433594 0.0742188 C 1.824219 0.0742188 2.277344 -0.0546875 2.566406 -0.457031 L 2.628906 -0.128906 C 2.648438 -0.0390625 2.703125 0 2.785156 0 L 2.980469 0 C 3.074219 0 3.121094 -0.046875 3.121094 -0.140625 L 3.121094 -2.304688 C 3.121094 -3.167969 2.523438 -3.507812 1.757812 -3.507812 Z M 1.535156 -0.425781 C 1.203125 -0.425781 0.929688 -0.59375 0.929688 -0.964844 C 0.929688 -1.402344 1.308594 -1.574219 1.832031 -1.574219 C 2.035156 -1.574219 2.261719 -1.546875 2.496094 -1.5 L 2.496094 -1.378906 C 2.496094 -0.671875 1.933594 -0.425781 1.535156 -0.425781 Z M 1.535156 -0.425781 "/></g></g></g><g fill="#5271ff" fill-opacity="1"><g transform="translate(97.455755, 22.775732)"><g><path d="M 3.933594 -5.160156 C 3.933594 -5.253906 3.886719 -5.300781 3.796875 -5.300781 L 3.453125 -5.300781 C 3.359375 -5.300781 3.308594 -5.253906 3.308594 -5.160156 L 3.3125 -3 C 2.992188 -3.328125 2.539062 -3.507812 2.078125 -3.507812 C 1.089844 -3.507812 0.304688 -2.703125 0.304688 -1.714844 C 0.304688 -0.730469 1.089844 0.0742188 2.078125 0.0742188 C 2.578125 0.0742188 3.0625 -0.132812 3.382812 -0.511719 L 3.457031 -0.128906 C 3.46875 -0.0390625 3.523438 0 3.609375 0 L 3.804688 0 C 3.894531 0 3.945312 -0.046875 3.945312 -0.140625 Z M 2.125 -0.519531 C 1.46875 -0.519531 0.933594 -1.058594 0.933594 -1.714844 C 0.933594 -2.371094 1.46875 -2.910156 2.125 -2.910156 C 2.78125 -2.910156 3.320312 -2.371094 3.320312 -1.714844 C 3.320312 -1.058594 2.78125 -0.519531 2.125 -0.519531 Z M 2.125 -0.519531 "/></g></g></g></svg>